<?xml version="1.0" encoding="utf-8" standalone="no"?>
<!DOCTYPE svg PUBLIC "-//W3C//DTD SVG 1.1//EN"
  "http://www.w3.org/Graphics/SVG/1.1/DTD/svg11.dtd">
<svg xmlns:xlink="http://www.w3.org/1999/xlink" width="1002.896813pt" height="572.228125pt" viewBox="0 0 1002.896813 572.228125" xmlns="http://www.w3.org/2000/svg" version="1.1">
 <metadata>
  <rdf:RDF xmlns:dc="http://purl.org/dc/elements/1.1/" xmlns:cc="http://creativecommons.org/ns#" xmlns:rdf="http://www.w3.org/1999/02/22-rdf-syntax-ns#">
   <cc:Work>
    <dc:type rdf:resource="http://purl.org/dc/dcmitype/StillImage"/>
    <dc:date>2025-04-29T23:52:19.495603</dc:date>
    <dc:format>image/svg+xml</dc:format>
    <dc:creator>
     <cc:Agent>
      <dc:title>Matplotlib v3.10.1, https://matplotlib.org/</dc:title>
     </cc:Agent>
    </dc:creator>
   </cc:Work>
  </rdf:RDF>
 </metadata>
 <defs>
  <style type="text/css">*{stroke-linejoin: round; stroke-linecap: butt}</style>
 </defs>
 <g id="figure_1">
  <g id="patch_1">
   <path d="M 0 572.228125 
L 1002.896813 572.228125 
L 1002.896813 0 
L 0 0 
z
" style="fill: #ffffff"/>
  </g>
  <g id="axes_1">
   <g id="patch_2">
    <path d="M 32.942187 523.318125 
L 851.622188 523.318125 
L 851.622188 22.798125 
L 32.942187 22.798125 
z
" style="fill: #f4f4f4"/>
   </g>
   <g id="matplotlib.axis_1">
    <g id="xtick_1">
     <g id="line2d_1">
      <path d="M 32.942187 523.318125 
L 32.942187 22.798125 
" clip-path="url(#p3e113bb76f)" style="fill: none; stroke: #ffffff; stroke-opacity: 0.8; stroke-width: 3; stroke-linecap: square"/>
     </g>
     <g id="line2d_2">
      <defs>
       <path id="m82d3b0406f" d="M 0 0 
L 0 3.5 
" style="stroke: #000000; stroke-width: 0.8"/>
      </defs>
      <g>
       <use xlink:href="#m82d3b0406f" x="32.942187" y="523.318125" style="stroke: #000000; stroke-width: 0.8"/>
      </g>
     </g>
     <g id="text_1">
      <!-- 2024 April -->
      <g transform="translate(7.2 537.916562) scale(0.1 -0.1)">
       <defs>
        <path id="DejaVuSans-32" d="M 1228 531 
L 3431 531 
L 3431 0 
L 469 0 
L 469 531 
Q 828 903 1448 1529 
Q 2069 2156 2228 2338 
Q 2531 2678 2651 2914 
Q 2772 3150 2772 3378 
Q 2772 3750 2511 3984 
Q 2250 4219 1831 4219 
Q 1534 4219 1204 4116 
Q 875 4013 500 3803 
L 500 4441 
Q 881 4594 1212 4672 
Q 1544 4750 1819 4750 
Q 2544 4750 2975 4387 
Q 3406 4025 3406 3419 
Q 3406 3131 3298 2873 
Q 3191 2616 2906 2266 
Q 2828 2175 2409 1742 
Q 1991 1309 1228 531 
z
" transform="scale(0.015625)"/>
        <path id="DejaVuSans-30" d="M 2034 4250 
Q 1547 4250 1301 3770 
Q 1056 3291 1056 2328 
Q 1056 1369 1301 889 
Q 1547 409 2034 409 
Q 2525 409 2770 889 
Q 3016 1369 3016 2328 
Q 3016 3291 2770 3770 
Q 2525 4250 2034 4250 
z
M 2034 4750 
Q 2819 4750 3233 4129 
Q 3647 3509 3647 2328 
Q 3647 1150 3233 529 
Q 2819 -91 2034 -91 
Q 1250 -91 836 529 
Q 422 1150 422 2328 
Q 422 3509 836 4129 
Q 1250 4750 2034 4750 
z
" transform="scale(0.015625)"/>
        <path id="DejaVuSans-34" d="M 2419 4116 
L 825 1625 
L 2419 1625 
L 2419 4116 
z
M 2253 4666 
L 3047 4666 
L 3047 1625 
L 3713 1625 
L 3713 1100 
L 3047 1100 
L 3047 0 
L 2419 0 
L 2419 1100 
L 313 1100 
L 313 1709 
L 2253 4666 
z
" transform="scale(0.015625)"/>
        <path id="DejaVuSans-20" transform="scale(0.015625)"/>
        <path id="DejaVuSans-41" d="M 2188 4044 
L 1331 1722 
L 3047 1722 
L 2188 4044 
z
M 1831 4666 
L 2547 4666 
L 4325 0 
L 3669 0 
L 3244 1197 
L 1141 1197 
L 716 0 
L 50 0 
L 1831 4666 
z
" transform="scale(0.015625)"/>
        <path id="DejaVuSans-70" d="M 1159 525 
L 1159 -1331 
L 581 -1331 
L 581 3500 
L 1159 3500 
L 1159 2969 
Q 1341 3281 1617 3432 
Q 1894 3584 2278 3584 
Q 2916 3584 3314 3078 
Q 3713 2572 3713 1747 
Q 3713 922 3314 415 
Q 2916 -91 2278 -91 
Q 1894 -91 1617 61 
Q 1341 213 1159 525 
z
M 3116 1747 
Q 3116 2381 2855 2742 
Q 2594 3103 2138 3103 
Q 1681 3103 1420 2742 
Q 1159 2381 1159 1747 
Q 1159 1113 1420 752 
Q 1681 391 2138 391 
Q 2594 391 2855 752 
Q 3116 1113 3116 1747 
z
" transform="scale(0.015625)"/>
        <path id="DejaVuSans-72" d="M 2631 2963 
Q 2534 3019 2420 3045 
Q 2306 3072 2169 3072 
Q 1681 3072 1420 2755 
Q 1159 2438 1159 1844 
L 1159 0 
L 581 0 
L 581 3500 
L 1159 3500 
L 1159 2956 
Q 1341 3275 1631 3429 
Q 1922 3584 2338 3584 
Q 2397 3584 2469 3576 
Q 2541 3569 2628 3553 
L 2631 2963 
z
" transform="scale(0.015625)"/>
        <path id="DejaVuSans-69" d="M 603 3500 
L 1178 3500 
L 1178 0 
L 603 0 
L 603 3500 
z
M 603 4863 
L 1178 4863 
L 1178 4134 
L 603 4134 
L 603 4863 
z
" transform="scale(0.015625)"/>
        <path id="DejaVuSans-6c" d="M 603 4863 
L 1178 4863 
L 1178 0 
L 603 0 
L 603 4863 
z
" transform="scale(0.015625)"/>
       </defs>
       <use xlink:href="#DejaVuSans-32"/>
       <use xlink:href="#DejaVuSans-30" transform="translate(63.623047 0)"/>
       <use xlink:href="#DejaVuSans-32" transform="translate(127.246094 0)"/>
       <use xlink:href="#DejaVuSans-34" transform="translate(190.869141 0)"/>
       <use xlink:href="#DejaVuSans-20" transform="translate(254.492188 0)"/>
       <use xlink:href="#DejaVuSans-41" transform="translate(286.279297 0)"/>
       <use xlink:href="#DejaVuSans-70" transform="translate(354.6875 0)"/>
       <use xlink:href="#DejaVuSans-72" transform="translate(418.164062 0)"/>
       <use xlink:href="#DejaVuSans-69" transform="translate(459.277344 0)"/>
       <use xlink:href="#DejaVuSans-6c" transform="translate(487.060547 0)"/>
      </g>
     </g>
    </g>
    <g id="xtick_2">
     <g id="line2d_3">
      <path d="M 336.146765 523.318125 
L 336.146765 22.798125 
" clip-path="url(#p3e113bb76f)" style="fill: none; stroke: #ffffff; stroke-opacity: 0.8; stroke-width: 3; stroke-linecap: square"/>
     </g>
     <g id="line2d_4">
      <g>
       <use xlink:href="#m82d3b0406f" x="336.146765" y="523.318125" style="stroke: #000000; stroke-width: 0.8"/>
      </g>
     </g>
     <g id="text_2">
      <!-- 2025 -->
      <g transform="translate(323.421765 537.916562) scale(0.1 -0.1)">
       <defs>
        <path id="DejaVuSans-35" d="M 691 4666 
L 3169 4666 
L 3169 4134 
L 1269 4134 
L 1269 2991 
Q 1406 3038 1543 3061 
Q 1681 3084 1819 3084 
Q 2600 3084 3056 2656 
Q 3513 2228 3513 1497 
Q 3513 744 3044 326 
Q 2575 -91 1722 -91 
Q 1428 -91 1123 -41 
Q 819 9 494 109 
L 494 744 
Q 775 591 1075 516 
Q 1375 441 1709 441 
Q 2250 441 2565 725 
Q 2881 1009 2881 1497 
Q 2881 1984 2565 2268 
Q 2250 2553 1709 2553 
Q 1456 2553 1204 2497 
Q 953 2441 691 2322 
L 691 4666 
z
" transform="scale(0.015625)"/>
       </defs>
       <use xlink:href="#DejaVuSans-32"/>
       <use xlink:href="#DejaVuSans-30" transform="translate(63.623047 0)"/>
       <use xlink:href="#DejaVuSans-32" transform="translate(127.246094 0)"/>
       <use xlink:href="#DejaVuSans-35" transform="translate(190.869141 0)"/>
      </g>
     </g>
    </g>
    <g id="xtick_3">
     <g id="line2d_5">
      <path d="M 851.622188 523.318125 
L 851.622188 22.798125 
" clip-path="url(#p3e113bb76f)" style="fill: none; stroke: #ffffff; stroke-opacity: 0.8; stroke-width: 3; stroke-linecap: square"/>
     </g>
     <g id="line2d_6">
      <g>
       <use xlink:href="#m82d3b0406f" x="851.622188" y="523.318125" style="stroke: #000000; stroke-width: 0.8"/>
      </g>
     </g>
     <g id="text_3">
      <!-- 2026 April -->
      <g transform="translate(825.88 537.916562) scale(0.1 -0.1)">
       <defs>
        <path id="DejaVuSans-36" d="M 2113 2584 
Q 1688 2584 1439 2293 
Q 1191 2003 1191 1497 
Q 1191 994 1439 701 
Q 1688 409 2113 409 
Q 2538 409 2786 701 
Q 3034 994 3034 1497 
Q 3034 2003 2786 2293 
Q 2538 2584 2113 2584 
z
M 3366 4563 
L 3366 3988 
Q 3128 4100 2886 4159 
Q 2644 4219 2406 4219 
Q 1781 4219 1451 3797 
Q 1122 3375 1075 2522 
Q 1259 2794 1537 2939 
Q 1816 3084 2150 3084 
Q 2853 3084 3261 2657 
Q 3669 2231 3669 1497 
Q 3669 778 3244 343 
Q 2819 -91 2113 -91 
Q 1303 -91 875 529 
Q 447 1150 447 2328 
Q 447 3434 972 4092 
Q 1497 4750 2381 4750 
Q 2619 4750 2861 4703 
Q 3103 4656 3366 4563 
z
" transform="scale(0.015625)"/>
       </defs>
       <use xlink:href="#DejaVuSans-32"/>
       <use xlink:href="#DejaVuSans-30" transform="translate(63.623047 0)"/>
       <use xlink:href="#DejaVuSans-32" transform="translate(127.246094 0)"/>
       <use xlink:href="#DejaVuSans-36" transform="translate(190.869141 0)"/>
       <use xlink:href="#DejaVuSans-20" transform="translate(254.492188 0)"/>
       <use xlink:href="#DejaVuSans-41" transform="translate(286.279297 0)"/>
       <use xlink:href="#DejaVuSans-70" transform="translate(354.6875 0)"/>
       <use xlink:href="#DejaVuSans-72" transform="translate(418.164062 0)"/>
       <use xlink:href="#DejaVuSans-69" transform="translate(459.277344 0)"/>
       <use xlink:href="#DejaVuSans-6c" transform="translate(487.060547 0)"/>
      </g>
     </g>
    </g>
   </g>
   <g id="matplotlib.axis_2">
    <g id="ytick_1">
     <g id="line2d_7">
      <path d="M 32.942187 523.318125 
L 851.622188 523.318125 
" clip-path="url(#p3e113bb76f)" style="fill: none; stroke: #ffffff; stroke-opacity: 0.8; stroke-width: 3; stroke-linecap: square"/>
     </g>
     <g id="line2d_8">
      <defs>
       <path id="m543649bac8" d="M 0 0 
L -3.5 0 
" style="stroke: #000000; stroke-width: 0.8"/>
      </defs>
      <g>
       <use xlink:href="#m543649bac8" x="32.942187" y="523.318125" style="stroke: #000000; stroke-width: 0.8"/>
      </g>
     </g>
     <g id="text_4">
      <!-- 0 -->
      <g transform="translate(19.579687 527.117344) scale(0.1 -0.1)">
       <use xlink:href="#DejaVuSans-30"/>
      </g>
     </g>
    </g>
    <g id="ytick_2">
     <g id="line2d_9">
      <path d="M 32.942187 481.608125 
L 851.622188 481.608125 
" clip-path="url(#p3e113bb76f)" style="fill: none; stroke: #ffffff; stroke-opacity: 0.8; stroke-width: 3; stroke-linecap: square"/>
     </g>
     <g id="line2d_10">
      <g>
       <use xlink:href="#m543649bac8" x="32.942187" y="481.608125" style="stroke: #000000; stroke-width: 0.8"/>
      </g>
     </g>
     <g id="text_5">
      <!-- 5 -->
      <g transform="translate(19.579687 485.407344) scale(0.1 -0.1)">
       <use xlink:href="#DejaVuSans-35"/>
      </g>
     </g>
    </g>
    <g id="ytick_3">
     <g id="line2d_11">
      <path d="M 32.942187 439.898125 
L 851.622188 439.898125 
" clip-path="url(#p3e113bb76f)" style="fill: none; stroke: #ffffff; stroke-opacity: 0.8; stroke-width: 3; stroke-linecap: square"/>
     </g>
     <g id="line2d_12">
      <g>
       <use xlink:href="#m543649bac8" x="32.942187" y="439.898125" style="stroke: #000000; stroke-width: 0.8"/>
      </g>
     </g>
     <g id="text_6">
      <!-- 10 -->
      <g transform="translate(13.217187 443.697344) scale(0.1 -0.1)">
       <defs>
        <path id="DejaVuSans-31" d="M 794 531 
L 1825 531 
L 1825 4091 
L 703 3866 
L 703 4441 
L 1819 4666 
L 2450 4666 
L 2450 531 
L 3481 531 
L 3481 0 
L 794 0 
L 794 531 
z
" transform="scale(0.015625)"/>
       </defs>
       <use xlink:href="#DejaVuSans-31"/>
       <use xlink:href="#DejaVuSans-30" transform="translate(63.623047 0)"/>
      </g>
     </g>
    </g>
    <g id="ytick_4">
     <g id="line2d_13">
      <path d="M 32.942187 398.188125 
L 851.622188 398.188125 
" clip-path="url(#p3e113bb76f)" style="fill: none; stroke: #ffffff; stroke-opacity: 0.8; stroke-width: 3; stroke-linecap: square"/>
     </g>
     <g id="line2d_14">
      <g>
       <use xlink:href="#m543649bac8" x="32.942187" y="398.188125" style="stroke: #000000; stroke-width: 0.8"/>
      </g>
     </g>
     <g id="text_7">
      <!-- 15 -->
      <g transform="translate(13.217187 401.987344) scale(0.1 -0.1)">
       <use xlink:href="#DejaVuSans-31"/>
       <use xlink:href="#DejaVuSans-35" transform="translate(63.623047 0)"/>
      </g>
     </g>
    </g>
    <g id="ytick_5">
     <g id="line2d_15">
      <path d="M 32.942187 356.478125 
L 851.622188 356.478125 
" clip-path="url(#p3e113bb76f)" style="fill: none; stroke: #ffffff; stroke-opacity: 0.8; stroke-width: 3; stroke-linecap: square"/>
     </g>
     <g id="line2d_16">
      <g>
       <use xlink:href="#m543649bac8" x="32.942187" y="356.478125" style="stroke: #000000; stroke-width: 0.8"/>
      </g>
     </g>
     <g id="text_8">
      <!-- 20 -->
      <g transform="translate(13.217187 360.277344) scale(0.1 -0.1)">
       <use xlink:href="#DejaVuSans-32"/>
       <use xlink:href="#DejaVuSans-30" transform="translate(63.623047 0)"/>
      </g>
     </g>
    </g>
    <g id="ytick_6">
     <g id="line2d_17">
      <path d="M 32.942187 314.768125 
L 851.622188 314.768125 
" clip-path="url(#p3e113bb76f)" style="fill: none; stroke: #ffffff; stroke-opacity: 0.8; stroke-width: 3; stroke-linecap: square"/>
     </g>
     <g id="line2d_18">
      <g>
       <use xlink:href="#m543649bac8" x="32.942187" y="314.768125" style="stroke: #000000; stroke-width: 0.8"/>
      </g>
     </g>
     <g id="text_9">
      <!-- 25 -->
      <g transform="translate(13.217187 318.567344) scale(0.1 -0.1)">
       <use xlink:href="#DejaVuSans-32"/>
       <use xlink:href="#DejaVuSans-35" transform="translate(63.623047 0)"/>
      </g>
     </g>
    </g>
    <g id="ytick_7">
     <g id="line2d_19">
      <path d="M 32.942187 273.058125 
L 851.622188 273.058125 
" clip-path="url(#p3e113bb76f)" style="fill: none; stroke: #ffffff; stroke-opacity: 0.8; stroke-width: 3; stroke-linecap: square"/>
     </g>
     <g id="line2d_20">
      <g>
       <use xlink:href="#m543649bac8" x="32.942187" y="273.058125" style="stroke: #000000; stroke-width: 0.8"/>
      </g>
     </g>
     <g id="text_10">
      <!-- 30 -->
      <g transform="translate(13.217187 276.857344) scale(0.1 -0.1)">
       <defs>
        <path id="DejaVuSans-33" d="M 2597 2516 
Q 3050 2419 3304 2112 
Q 3559 1806 3559 1356 
Q 3559 666 3084 287 
Q 2609 -91 1734 -91 
Q 1441 -91 1130 -33 
Q 819 25 488 141 
L 488 750 
Q 750 597 1062 519 
Q 1375 441 1716 441 
Q 2309 441 2620 675 
Q 2931 909 2931 1356 
Q 2931 1769 2642 2001 
Q 2353 2234 1838 2234 
L 1294 2234 
L 1294 2753 
L 1863 2753 
Q 2328 2753 2575 2939 
Q 2822 3125 2822 3475 
Q 2822 3834 2567 4026 
Q 2313 4219 1838 4219 
Q 1578 4219 1281 4162 
Q 984 4106 628 3988 
L 628 4550 
Q 988 4650 1302 4700 
Q 1616 4750 1894 4750 
Q 2613 4750 3031 4423 
Q 3450 4097 3450 3541 
Q 3450 3153 3228 2886 
Q 3006 2619 2597 2516 
z
" transform="scale(0.015625)"/>
       </defs>
       <use xlink:href="#DejaVuSans-33"/>
       <use xlink:href="#DejaVuSans-30" transform="translate(63.623047 0)"/>
      </g>
     </g>
    </g>
    <g id="ytick_8">
     <g id="line2d_21">
      <path d="M 32.942187 231.348125 
L 851.622188 231.348125 
" clip-path="url(#p3e113bb76f)" style="fill: none; stroke: #ffffff; stroke-opacity: 0.8; stroke-width: 3; stroke-linecap: square"/>
     </g>
     <g id="line2d_22">
      <g>
       <use xlink:href="#m543649bac8" x="32.942187" y="231.348125" style="stroke: #000000; stroke-width: 0.8"/>
      </g>
     </g>
     <g id="text_11">
      <!-- 35 -->
      <g transform="translate(13.217187 235.147344) scale(0.1 -0.1)">
       <use xlink:href="#DejaVuSans-33"/>
       <use xlink:href="#DejaVuSans-35" transform="translate(63.623047 0)"/>
      </g>
     </g>
    </g>
    <g id="ytick_9">
     <g id="line2d_23">
      <path d="M 32.942187 189.638125 
L 851.622188 189.638125 
" clip-path="url(#p3e113bb76f)" style="fill: none; stroke: #ffffff; stroke-opacity: 0.8; stroke-width: 3; stroke-linecap: square"/>
     </g>
     <g id="line2d_24">
      <g>
       <use xlink:href="#m543649bac8" x="32.942187" y="189.638125" style="stroke: #000000; stroke-width: 0.8"/>
      </g>
     </g>
     <g id="text_12">
      <!-- 40 -->
      <g transform="translate(13.217187 193.437344) scale(0.1 -0.1)">
       <use xlink:href="#DejaVuSans-34"/>
       <use xlink:href="#DejaVuSans-30" transform="translate(63.623047 0)"/>
      </g>
     </g>
    </g>
    <g id="ytick_10">
     <g id="line2d_25">
      <path d="M 32.942187 147.928125 
L 851.622188 147.928125 
" clip-path="url(#p3e113bb76f)" style="fill: none; stroke: #ffffff; stroke-opacity: 0.8; stroke-width: 3; stroke-linecap: square"/>
     </g>
     <g id="line2d_26">
      <g>
       <use xlink:href="#m543649bac8" x="32.942187" y="147.928125" style="stroke: #000000; stroke-width: 0.8"/>
      </g>
     </g>
     <g id="text_13">
      <!-- 45 -->
      <g transform="translate(13.217187 151.727344) scale(0.1 -0.1)">
       <use xlink:href="#DejaVuSans-34"/>
       <use xlink:href="#DejaVuSans-35" transform="translate(63.623047 0)"/>
      </g>
     </g>
    </g>
    <g id="ytick_11">
     <g id="line2d_27">
      <path d="M 32.942187 106.218125 
L 851.622188 106.218125 
" clip-path="url(#p3e113bb76f)" style="fill: none; stroke: #ffffff; stroke-opacity: 0.8; stroke-width: 3; stroke-linecap: square"/>
     </g>
     <g id="line2d_28">
      <g>
       <use xlink:href="#m543649bac8" x="32.942187" y="106.218125" style="stroke: #000000; stroke-width: 0.8"/>
      </g>
     </g>
     <g id="text_14">
      <!-- 50 -->
      <g transform="translate(13.217187 110.017344) scale(0.1 -0.1)">
       <use xlink:href="#DejaVuSans-35"/>
       <use xlink:href="#DejaVuSans-30" transform="translate(63.623047 0)"/>
      </g>
     </g>
    </g>
    <g id="ytick_12">
     <g id="line2d_29">
      <path d="M 32.942187 64.508125 
L 851.622188 64.508125 
" clip-path="url(#p3e113bb76f)" style="fill: none; stroke: #ffffff; stroke-opacity: 0.8; stroke-width: 3; stroke-linecap: square"/>
     </g>
     <g id="line2d_30">
      <g>
       <use xlink:href="#m543649bac8" x="32.942187" y="64.508125" style="stroke: #000000; stroke-width: 0.8"/>
      </g>
     </g>
     <g id="text_15">
      <!-- 55 -->
      <g transform="translate(13.217187 68.307344) scale(0.1 -0.1)">
       <use xlink:href="#DejaVuSans-35"/>
       <use xlink:href="#DejaVuSans-35" transform="translate(63.623047 0)"/>
      </g>
     </g>
    </g>
    <g id="ytick_13">
     <g id="line2d_31">
      <path d="M 32.942187 22.798125 
L 851.622188 22.798125 
" clip-path="url(#p3e113bb76f)" style="fill: none; stroke: #ffffff; stroke-opacity: 0.8; stroke-width: 3; stroke-linecap: square"/>
     </g>
     <g id="line2d_32">
      <g>
       <use xlink:href="#m543649bac8" x="32.942187" y="22.798125" style="stroke: #000000; stroke-width: 0.8"/>
      </g>
     </g>
     <g id="text_16">
      <!-- 60 -->
      <g transform="translate(13.217187 26.597344) scale(0.1 -0.1)">
       <use xlink:href="#DejaVuSans-36"/>
       <use xlink:href="#DejaVuSans-30" transform="translate(63.623047 0)"/>
      </g>
     </g>
    </g>
   </g>
   <g id="line2d_33">
    <path d="M 32.942187 481.608125 
L 851.622188 481.608125 
" clip-path="url(#p3e113bb76f)" style="fill: none; stroke-dasharray: 5.55,2.4; stroke-dashoffset: 0; stroke: #000000; stroke-width: 1.5"/>
   </g>
   <g id="patch_3">
    <path d="M 32.942187 523.318125 
L 32.942187 22.798125 
" style="fill: none; stroke: #000000; stroke-width: 0.8; stroke-linejoin: miter; stroke-linecap: square"/>
   </g>
   <g id="patch_4">
    <path d="M 851.622188 523.318125 
L 851.622188 22.798125 
" style="fill: none; stroke: #000000; stroke-width: 0.8; stroke-linejoin: miter; stroke-linecap: square"/>
   </g>
   <g id="patch_5">
    <path d="M 32.942187 523.318125 
L 851.622188 523.318125 
" style="fill: none; stroke: #000000; stroke-width: 0.8; stroke-linejoin: miter; stroke-linecap: square"/>
   </g>
   <g id="patch_6">
    <path d="M 32.942187 22.798125 
L 851.622188 22.798125 
" style="fill: none; stroke: #000000; stroke-width: 0.8; stroke-linejoin: miter; stroke-linecap: square"/>
   </g>
   <g id="PathCollection_1">
    <defs>
     <path id="m5c526a2daf" d="M 0 3 
C 0.795609 3 1.55874 2.683901 2.12132 2.12132 
C 2.683901 1.55874 3 0.795609 3 0 
C 3 -0.795609 2.683901 -1.55874 2.12132 -2.12132 
C 1.55874 -2.683901 0.795609 -3 0 -3 
C -0.795609 -3 -1.55874 -2.683901 -2.12132 -2.12132 
C -2.683901 -1.55874 -3 -0.795609 -3 0 
C -3 0.795609 -2.683901 1.55874 -2.12132 2.12132 
C -1.55874 2.683901 -0.795609 3 0 3 
z
" style="stroke: #ff6a00; stroke-opacity: 0.6"/>
    </defs>
    <g clip-path="url(#p3e113bb76f)">
     <use xlink:href="#m5c526a2daf" x="52.842579" y="106.218125" style="fill: #ff6a00; fill-opacity: 0.6; stroke: #ff6a00; stroke-opacity: 0.6"/>
     <use xlink:href="#m5c526a2daf" x="63.898352" y="147.928125" style="fill: #ff6a00; fill-opacity: 0.6; stroke: #ff6a00; stroke-opacity: 0.6"/>
     <use xlink:href="#m5c526a2daf" x="97.065672" y="122.902125" style="fill: #ff6a00; fill-opacity: 0.6; stroke: #ff6a00; stroke-opacity: 0.6"/>
     <use xlink:href="#m5c526a2daf" x="104.804713" y="106.218125" style="fill: #ff6a00; fill-opacity: 0.6; stroke: #ff6a00; stroke-opacity: 0.6"/>
     <use xlink:href="#m5c526a2daf" x="108.121445" y="156.270125" style="fill: #ff6a00; fill-opacity: 0.6; stroke: #ff6a00; stroke-opacity: 0.6"/>
     <use xlink:href="#m5c526a2daf" x="143.499919" y="164.612125" style="fill: #ff6a00; fill-opacity: 0.6; stroke: #ff6a00; stroke-opacity: 0.6"/>
     <use xlink:href="#m5c526a2daf" x="212.045712" y="164.612125" style="fill: #ff6a00; fill-opacity: 0.6; stroke: #ff6a00; stroke-opacity: 0.6"/>
     <use xlink:href="#m5c526a2daf" x="250.740918" y="189.638125" style="fill: #ff6a00; fill-opacity: 0.6; stroke: #ff6a00; stroke-opacity: 0.6"/>
     <use xlink:href="#m5c526a2daf" x="272.852464" y="197.980125" style="fill: #ff6a00; fill-opacity: 0.6; stroke: #ff6a00; stroke-opacity: 0.6"/>
     <use xlink:href="#m5c526a2daf" x="297.175165" y="223.006125" style="fill: #ff6a00; fill-opacity: 0.6; stroke: #ff6a00; stroke-opacity: 0.6"/>
     <use xlink:href="#m5c526a2daf" x="335.870371" y="197.980125" style="fill: #ff6a00; fill-opacity: 0.6; stroke: #ff6a00; stroke-opacity: 0.6"/>
     <use xlink:href="#m5c526a2daf" x="411.326023" y="214.664125" style="fill: #ff6a00; fill-opacity: 0.6; stroke: #ff6a00; stroke-opacity: 0.6"/>
     <use xlink:href="#m5c526a2daf" x="442.282188" y="214.664125" style="fill: #ff6a00; fill-opacity: 0.6; stroke: #ff6a00; stroke-opacity: 0.6"/>
    </g>
   </g>
   <g id="PathCollection_2">
    <defs>
     <path id="m0c3a682507" d="M 0 3 
C 0.795609 3 1.55874 2.683901 2.12132 2.12132 
C 2.683901 1.55874 3 0.795609 3 0 
C 3 -0.795609 2.683901 -1.55874 2.12132 -2.12132 
C 1.55874 -2.683901 0.795609 -3 0 -3 
C -0.795609 -3 -1.55874 -2.683901 -2.12132 -2.12132 
C -2.683901 -1.55874 -3 -0.795609 -3 0 
C -3 0.795609 -2.683901 1.55874 -2.12132 2.12132 
C -1.55874 2.683901 -0.795609 3 0 3 
z
" style="stroke: #0067aa; stroke-opacity: 0.6"/>
    </defs>
    <g clip-path="url(#p3e113bb76f)">
     <use xlink:href="#m0c3a682507" x="52.842579" y="439.898125" style="fill: #0067aa; fill-opacity: 0.6; stroke: #0067aa; stroke-opacity: 0.6"/>
     <use xlink:href="#m0c3a682507" x="63.898352" y="448.240125" style="fill: #0067aa; fill-opacity: 0.6; stroke: #0067aa; stroke-opacity: 0.6"/>
     <use xlink:href="#m0c3a682507" x="97.065672" y="464.924125" style="fill: #0067aa; fill-opacity: 0.6; stroke: #0067aa; stroke-opacity: 0.6"/>
     <use xlink:href="#m0c3a682507" x="104.804713" y="448.240125" style="fill: #0067aa; fill-opacity: 0.6; stroke: #0067aa; stroke-opacity: 0.6"/>
     <use xlink:href="#m0c3a682507" x="108.121445" y="456.582125" style="fill: #0067aa; fill-opacity: 0.6; stroke: #0067aa; stroke-opacity: 0.6"/>
     <use xlink:href="#m0c3a682507" x="143.499919" y="448.240125" style="fill: #0067aa; fill-opacity: 0.6; stroke: #0067aa; stroke-opacity: 0.6"/>
     <use xlink:href="#m0c3a682507" x="212.045712" y="498.292125" style="fill: #0067aa; fill-opacity: 0.6; stroke: #0067aa; stroke-opacity: 0.6"/>
     <use xlink:href="#m0c3a682507" x="250.740918" y="489.950125" style="fill: #0067aa; fill-opacity: 0.6; stroke: #0067aa; stroke-opacity: 0.6"/>
     <use xlink:href="#m0c3a682507" x="272.852464" y="498.292125" style="fill: #0067aa; fill-opacity: 0.6; stroke: #0067aa; stroke-opacity: 0.6"/>
     <use xlink:href="#m0c3a682507" x="297.175165" y="489.950125" style="fill: #0067aa; fill-opacity: 0.6; stroke: #0067aa; stroke-opacity: 0.6"/>
     <use xlink:href="#m0c3a682507" x="335.870371" y="489.950125" style="fill: #0067aa; fill-opacity: 0.6; stroke: #0067aa; stroke-opacity: 0.6"/>
     <use xlink:href="#m0c3a682507" x="411.326023" y="498.292125" style="fill: #0067aa; fill-opacity: 0.6; stroke: #0067aa; stroke-opacity: 0.6"/>
     <use xlink:href="#m0c3a682507" x="442.282188" y="498.292125" style="fill: #0067aa; fill-opacity: 0.6; stroke: #0067aa; stroke-opacity: 0.6"/>
    </g>
   </g>
   <g id="PathCollection_3">
    <defs>
     <path id="m3d24f47fef" d="M 0 3 
C 0.795609 3 1.55874 2.683901 2.12132 2.12132 
C 2.683901 1.55874 3 0.795609 3 0 
C 3 -0.795609 2.683901 -1.55874 2.12132 -2.12132 
C 1.55874 -2.683901 0.795609 -3 0 -3 
C -0.795609 -3 -1.55874 -2.683901 -2.12132 -2.12132 
C -2.683901 -1.55874 -3 -0.795609 -3 0 
C -3 0.795609 -2.683901 1.55874 -2.12132 2.12132 
C -1.55874 2.683901 -0.795609 3 0 3 
z
" style="stroke: #8e6fce; stroke-opacity: 0.6"/>
    </defs>
    <g clip-path="url(#p3e113bb76f)">
     <use xlink:href="#m3d24f47fef" x="52.842579" y="523.318125" style="fill: #8e6fce; fill-opacity: 0.6; stroke: #8e6fce; stroke-opacity: 0.6"/>
     <use xlink:href="#m3d24f47fef" x="63.898352" y="514.976125" style="fill: #8e6fce; fill-opacity: 0.6; stroke: #8e6fce; stroke-opacity: 0.6"/>
     <use xlink:href="#m3d24f47fef" x="97.065672" y="523.318125" style="fill: #8e6fce; fill-opacity: 0.6; stroke: #8e6fce; stroke-opacity: 0.6"/>
     <use xlink:href="#m3d24f47fef" x="104.804713" y="523.318125" style="fill: #8e6fce; fill-opacity: 0.6; stroke: #8e6fce; stroke-opacity: 0.6"/>
     <use xlink:href="#m3d24f47fef" x="108.121445" y="523.318125" style="fill: #8e6fce; fill-opacity: 0.6; stroke: #8e6fce; stroke-opacity: 0.6"/>
     <use xlink:href="#m3d24f47fef" x="143.499919" y="514.976125" style="fill: #8e6fce; fill-opacity: 0.6; stroke: #8e6fce; stroke-opacity: 0.6"/>
     <use xlink:href="#m3d24f47fef" x="212.045712" y="514.976125" style="fill: #8e6fce; fill-opacity: 0.6; stroke: #8e6fce; stroke-opacity: 0.6"/>
     <use xlink:href="#m3d24f47fef" x="250.740918" y="506.634125" style="fill: #8e6fce; fill-opacity: 0.6; stroke: #8e6fce; stroke-opacity: 0.6"/>
     <use xlink:href="#m3d24f47fef" x="272.852464" y="514.976125" style="fill: #8e6fce; fill-opacity: 0.6; stroke: #8e6fce; stroke-opacity: 0.6"/>
     <use xlink:href="#m3d24f47fef" x="297.175165" y="514.976125" style="fill: #8e6fce; fill-opacity: 0.6; stroke: #8e6fce; stroke-opacity: 0.6"/>
     <use xlink:href="#m3d24f47fef" x="335.870371" y="523.318125" style="fill: #8e6fce; fill-opacity: 0.6; stroke: #8e6fce; stroke-opacity: 0.6"/>
     <use xlink:href="#m3d24f47fef" x="411.326023" y="523.318125" style="fill: #8e6fce; fill-opacity: 0.6; stroke: #8e6fce; stroke-opacity: 0.6"/>
     <use xlink:href="#m3d24f47fef" x="442.282188" y="523.318125" style="fill: #8e6fce; fill-opacity: 0.6; stroke: #8e6fce; stroke-opacity: 0.6"/>
    </g>
   </g>
   <g id="PathCollection_4">
    <defs>
     <path id="m6c625c47b7" d="M 0 3 
C 0.795609 3 1.55874 2.683901 2.12132 2.12132 
C 2.683901 1.55874 3 0.795609 3 0 
C 3 -0.795609 2.683901 -1.55874 2.12132 -2.12132 
C 1.55874 -2.683901 0.795609 -3 0 -3 
C -0.795609 -3 -1.55874 -2.683901 -2.12132 -2.12132 
C -2.683901 -1.55874 -3 -0.795609 -3 0 
C -3 0.795609 -2.683901 1.55874 -2.12132 2.12132 
C -1.55874 2.683901 -0.795609 3 0 3 
z
" style="stroke: #688d1b; stroke-opacity: 0.6"/>
    </defs>
    <g clip-path="url(#p3e113bb76f)">
     <use xlink:href="#m6c625c47b7" x="52.842579" y="489.950125" style="fill: #688d1b; fill-opacity: 0.6; stroke: #688d1b; stroke-opacity: 0.6"/>
     <use xlink:href="#m6c625c47b7" x="63.898352" y="473.266125" style="fill: #688d1b; fill-opacity: 0.6; stroke: #688d1b; stroke-opacity: 0.6"/>
     <use xlink:href="#m6c625c47b7" x="97.065672" y="506.634125" style="fill: #688d1b; fill-opacity: 0.6; stroke: #688d1b; stroke-opacity: 0.6"/>
     <use xlink:href="#m6c625c47b7" x="104.804713" y="489.950125" style="fill: #688d1b; fill-opacity: 0.6; stroke: #688d1b; stroke-opacity: 0.6"/>
     <use xlink:href="#m6c625c47b7" x="108.121445" y="489.950125" style="fill: #688d1b; fill-opacity: 0.6; stroke: #688d1b; stroke-opacity: 0.6"/>
     <use xlink:href="#m6c625c47b7" x="143.499919" y="481.608125" style="fill: #688d1b; fill-opacity: 0.6; stroke: #688d1b; stroke-opacity: 0.6"/>
     <use xlink:href="#m6c625c47b7" x="212.045712" y="498.292125" style="fill: #688d1b; fill-opacity: 0.6; stroke: #688d1b; stroke-opacity: 0.6"/>
     <use xlink:href="#m6c625c47b7" x="250.740918" y="481.608125" style="fill: #688d1b; fill-opacity: 0.6; stroke: #688d1b; stroke-opacity: 0.6"/>
     <use xlink:href="#m6c625c47b7" x="272.852464" y="473.266125" style="fill: #688d1b; fill-opacity: 0.6; stroke: #688d1b; stroke-opacity: 0.6"/>
     <use xlink:href="#m6c625c47b7" x="297.175165" y="473.266125" style="fill: #688d1b; fill-opacity: 0.6; stroke: #688d1b; stroke-opacity: 0.6"/>
     <use xlink:href="#m6c625c47b7" x="335.870371" y="473.266125" style="fill: #688d1b; fill-opacity: 0.6; stroke: #688d1b; stroke-opacity: 0.6"/>
     <use xlink:href="#m6c625c47b7" x="411.326023" y="473.266125" style="fill: #688d1b; fill-opacity: 0.6; stroke: #688d1b; stroke-opacity: 0.6"/>
     <use xlink:href="#m6c625c47b7" x="442.282188" y="489.950125" style="fill: #688d1b; fill-opacity: 0.6; stroke: #688d1b; stroke-opacity: 0.6"/>
    </g>
   </g>
   <g id="PathCollection_5">
    <defs>
     <path id="mecf5787e4a" d="M 0 3 
C 0.795609 3 1.55874 2.683901 2.12132 2.12132 
C 2.683901 1.55874 3 0.795609 3 0 
C 3 -0.795609 2.683901 -1.55874 2.12132 -2.12132 
C 1.55874 -2.683901 0.795609 -3 0 -3 
C -0.795609 -3 -1.55874 -2.683901 -2.12132 -2.12132 
C -2.683901 -1.55874 -3 -0.795609 -3 0 
C -3 0.795609 -2.683901 1.55874 -2.12132 2.12132 
C -1.55874 2.683901 -0.795609 3 0 3 
z
" style="stroke: #808080; stroke-opacity: 0.6"/>
    </defs>
    <g clip-path="url(#p3e113bb76f)">
     <use xlink:href="#mecf5787e4a" x="52.842579" y="523.318125" style="fill: #808080; fill-opacity: 0.6; stroke: #808080; stroke-opacity: 0.6"/>
     <use xlink:href="#mecf5787e4a" x="63.898352" y="514.976125" style="fill: #808080; fill-opacity: 0.6; stroke: #808080; stroke-opacity: 0.6"/>
     <use xlink:href="#mecf5787e4a" x="97.065672" y="506.634125" style="fill: #808080; fill-opacity: 0.6; stroke: #808080; stroke-opacity: 0.6"/>
     <use xlink:href="#mecf5787e4a" x="104.804713" y="506.634125" style="fill: #808080; fill-opacity: 0.6; stroke: #808080; stroke-opacity: 0.6"/>
     <use xlink:href="#mecf5787e4a" x="108.121445" y="506.634125" style="fill: #808080; fill-opacity: 0.6; stroke: #808080; stroke-opacity: 0.6"/>
     <use xlink:href="#mecf5787e4a" x="143.499919" y="506.634125" style="fill: #808080; fill-opacity: 0.6; stroke: #808080; stroke-opacity: 0.6"/>
     <use xlink:href="#mecf5787e4a" x="212.045712" y="498.292125" style="fill: #808080; fill-opacity: 0.6; stroke: #808080; stroke-opacity: 0.6"/>
     <use xlink:href="#mecf5787e4a" x="250.740918" y="489.950125" style="fill: #808080; fill-opacity: 0.6; stroke: #808080; stroke-opacity: 0.6"/>
     <use xlink:href="#mecf5787e4a" x="272.852464" y="498.292125" style="fill: #808080; fill-opacity: 0.6; stroke: #808080; stroke-opacity: 0.6"/>
     <use xlink:href="#mecf5787e4a" x="297.175165" y="489.950125" style="fill: #808080; fill-opacity: 0.6; stroke: #808080; stroke-opacity: 0.6"/>
     <use xlink:href="#mecf5787e4a" x="335.870371" y="489.950125" style="fill: #808080; fill-opacity: 0.6; stroke: #808080; stroke-opacity: 0.6"/>
     <use xlink:href="#mecf5787e4a" x="411.326023" y="489.950125" style="fill: #808080; fill-opacity: 0.6; stroke: #808080; stroke-opacity: 0.6"/>
     <use xlink:href="#mecf5787e4a" x="442.282188" y="498.292125" style="fill: #808080; fill-opacity: 0.6; stroke: #808080; stroke-opacity: 0.6"/>
    </g>
   </g>
   <g id="PathCollection_6">
    <defs>
     <path id="mb680455246" d="M 0 3 
C 0.795609 3 1.55874 2.683901 2.12132 2.12132 
C 2.683901 1.55874 3 0.795609 3 0 
C 3 -0.795609 2.683901 -1.55874 2.12132 -2.12132 
C 1.55874 -2.683901 0.795609 -3 0 -3 
C -0.795609 -3 -1.55874 -2.683901 -2.12132 -2.12132 
C -2.683901 -1.55874 -3 -0.795609 -3 0 
C -3 0.795609 -2.683901 1.55874 -2.12132 2.12132 
C -1.55874 2.683901 -0.795609 3 0 3 
z
" style="stroke: #112866; stroke-opacity: 0.6"/>
    </defs>
    <g clip-path="url(#p3e113bb76f)">
     <use xlink:href="#mb680455246" x="52.842579" y="306.426125" style="fill: #112866; fill-opacity: 0.6; stroke: #112866; stroke-opacity: 0.6"/>
     <use xlink:href="#mb680455246" x="63.898352" y="314.768125" style="fill: #112866; fill-opacity: 0.6; stroke: #112866; stroke-opacity: 0.6"/>
     <use xlink:href="#mb680455246" x="97.065672" y="281.400125" style="fill: #112866; fill-opacity: 0.6; stroke: #112866; stroke-opacity: 0.6"/>
     <use xlink:href="#mb680455246" x="104.804713" y="298.084125" style="fill: #112866; fill-opacity: 0.6; stroke: #112866; stroke-opacity: 0.6"/>
     <use xlink:href="#mb680455246" x="108.121445" y="256.374125" style="fill: #112866; fill-opacity: 0.6; stroke: #112866; stroke-opacity: 0.6"/>
     <use xlink:href="#mb680455246" x="143.499919" y="264.716125" style="fill: #112866; fill-opacity: 0.6; stroke: #112866; stroke-opacity: 0.6"/>
     <use xlink:href="#mb680455246" x="212.045712" y="197.980125" style="fill: #112866; fill-opacity: 0.6; stroke: #112866; stroke-opacity: 0.6"/>
     <use xlink:href="#mb680455246" x="250.740918" y="172.954125" style="fill: #112866; fill-opacity: 0.6; stroke: #112866; stroke-opacity: 0.6"/>
     <use xlink:href="#mb680455246" x="272.852464" y="139.586125" style="fill: #112866; fill-opacity: 0.6; stroke: #112866; stroke-opacity: 0.6"/>
     <use xlink:href="#mb680455246" x="297.175165" y="131.244125" style="fill: #112866; fill-opacity: 0.6; stroke: #112866; stroke-opacity: 0.6"/>
     <use xlink:href="#mb680455246" x="335.870371" y="156.270125" style="fill: #112866; fill-opacity: 0.6; stroke: #112866; stroke-opacity: 0.6"/>
     <use xlink:href="#mb680455246" x="411.326023" y="139.586125" style="fill: #112866; fill-opacity: 0.6; stroke: #112866; stroke-opacity: 0.6"/>
     <use xlink:href="#mb680455246" x="442.282188" y="97.876125" style="fill: #112866; fill-opacity: 0.6; stroke: #112866; stroke-opacity: 0.6"/>
    </g>
   </g>
   <g id="text_17">
    <!-- Intézetek: Medián, 21 Kutatóközpont, Iránytű -->
    <g style="fill: #808080" transform="translate(32.942187 562.948437) scale(0.1 -0.1)">
     <defs>
      <path id="DejaVuSans-49" d="M 628 4666 
L 1259 4666 
L 1259 0 
L 628 0 
L 628 4666 
z
" transform="scale(0.015625)"/>
      <path id="DejaVuSans-6e" d="M 3513 2113 
L 3513 0 
L 2938 0 
L 2938 2094 
Q 2938 2591 2744 2837 
Q 2550 3084 2163 3084 
Q 1697 3084 1428 2787 
Q 1159 2491 1159 1978 
L 1159 0 
L 581 0 
L 581 3500 
L 1159 3500 
L 1159 2956 
Q 1366 3272 1645 3428 
Q 1925 3584 2291 3584 
Q 2894 3584 3203 3211 
Q 3513 2838 3513 2113 
z
" transform="scale(0.015625)"/>
      <path id="DejaVuSans-74" d="M 1172 4494 
L 1172 3500 
L 2356 3500 
L 2356 3053 
L 1172 3053 
L 1172 1153 
Q 1172 725 1289 603 
Q 1406 481 1766 481 
L 2356 481 
L 2356 0 
L 1766 0 
Q 1100 0 847 248 
Q 594 497 594 1153 
L 594 3053 
L 172 3053 
L 172 3500 
L 594 3500 
L 594 4494 
L 1172 4494 
z
" transform="scale(0.015625)"/>
      <path id="DejaVuSans-e9" d="M 3597 1894 
L 3597 1613 
L 953 1613 
Q 991 1019 1311 708 
Q 1631 397 2203 397 
Q 2534 397 2845 478 
Q 3156 559 3463 722 
L 3463 178 
Q 3153 47 2828 -22 
Q 2503 -91 2169 -91 
Q 1331 -91 842 396 
Q 353 884 353 1716 
Q 353 2575 817 3079 
Q 1281 3584 2069 3584 
Q 2775 3584 3186 3129 
Q 3597 2675 3597 1894 
z
M 3022 2063 
Q 3016 2534 2758 2815 
Q 2500 3097 2075 3097 
Q 1594 3097 1305 2825 
Q 1016 2553 972 2059 
L 3022 2063 
z
M 2466 5119 
L 3088 5119 
L 2070 3944 
L 1591 3944 
L 2466 5119 
z
" transform="scale(0.015625)"/>
      <path id="DejaVuSans-7a" d="M 353 3500 
L 3084 3500 
L 3084 2975 
L 922 459 
L 3084 459 
L 3084 0 
L 275 0 
L 275 525 
L 2438 3041 
L 353 3041 
L 353 3500 
z
" transform="scale(0.015625)"/>
      <path id="DejaVuSans-65" d="M 3597 1894 
L 3597 1613 
L 953 1613 
Q 991 1019 1311 708 
Q 1631 397 2203 397 
Q 2534 397 2845 478 
Q 3156 559 3463 722 
L 3463 178 
Q 3153 47 2828 -22 
Q 2503 -91 2169 -91 
Q 1331 -91 842 396 
Q 353 884 353 1716 
Q 353 2575 817 3079 
Q 1281 3584 2069 3584 
Q 2775 3584 3186 3129 
Q 3597 2675 3597 1894 
z
M 3022 2063 
Q 3016 2534 2758 2815 
Q 2500 3097 2075 3097 
Q 1594 3097 1305 2825 
Q 1016 2553 972 2059 
L 3022 2063 
z
" transform="scale(0.015625)"/>
      <path id="DejaVuSans-6b" d="M 581 4863 
L 1159 4863 
L 1159 1991 
L 2875 3500 
L 3609 3500 
L 1753 1863 
L 3688 0 
L 2938 0 
L 1159 1709 
L 1159 0 
L 581 0 
L 581 4863 
z
" transform="scale(0.015625)"/>
      <path id="DejaVuSans-3a" d="M 750 794 
L 1409 794 
L 1409 0 
L 750 0 
L 750 794 
z
M 750 3309 
L 1409 3309 
L 1409 2516 
L 750 2516 
L 750 3309 
z
" transform="scale(0.015625)"/>
      <path id="DejaVuSans-4d" d="M 628 4666 
L 1569 4666 
L 2759 1491 
L 3956 4666 
L 4897 4666 
L 4897 0 
L 4281 0 
L 4281 4097 
L 3078 897 
L 2444 897 
L 1241 4097 
L 1241 0 
L 628 0 
L 628 4666 
z
" transform="scale(0.015625)"/>
      <path id="DejaVuSans-64" d="M 2906 2969 
L 2906 4863 
L 3481 4863 
L 3481 0 
L 2906 0 
L 2906 525 
Q 2725 213 2448 61 
Q 2172 -91 1784 -91 
Q 1150 -91 751 415 
Q 353 922 353 1747 
Q 353 2572 751 3078 
Q 1150 3584 1784 3584 
Q 2172 3584 2448 3432 
Q 2725 3281 2906 2969 
z
M 947 1747 
Q 947 1113 1208 752 
Q 1469 391 1925 391 
Q 2381 391 2643 752 
Q 2906 1113 2906 1747 
Q 2906 2381 2643 2742 
Q 2381 3103 1925 3103 
Q 1469 3103 1208 2742 
Q 947 2381 947 1747 
z
" transform="scale(0.015625)"/>
      <path id="DejaVuSans-e1" d="M 2194 1759 
Q 1497 1759 1228 1600 
Q 959 1441 959 1056 
Q 959 750 1161 570 
Q 1363 391 1709 391 
Q 2188 391 2477 730 
Q 2766 1069 2766 1631 
L 2766 1759 
L 2194 1759 
z
M 3341 1997 
L 3341 0 
L 2766 0 
L 2766 531 
Q 2569 213 2275 61 
Q 1981 -91 1556 -91 
Q 1019 -91 701 211 
Q 384 513 384 1019 
Q 384 1609 779 1909 
Q 1175 2209 1959 2209 
L 2766 2209 
L 2766 2266 
Q 2766 2663 2505 2880 
Q 2244 3097 1772 3097 
Q 1472 3097 1187 3025 
Q 903 2953 641 2809 
L 641 3341 
Q 956 3463 1253 3523 
Q 1550 3584 1831 3584 
Q 2591 3584 2966 3190 
Q 3341 2797 3341 1997 
z
M 2290 5119 
L 2912 5119 
L 1894 3944 
L 1415 3944 
L 2290 5119 
z
" transform="scale(0.015625)"/>
      <path id="DejaVuSans-2c" d="M 750 794 
L 1409 794 
L 1409 256 
L 897 -744 
L 494 -744 
L 750 256 
L 750 794 
z
" transform="scale(0.015625)"/>
      <path id="DejaVuSans-4b" d="M 628 4666 
L 1259 4666 
L 1259 2694 
L 3353 4666 
L 4166 4666 
L 1850 2491 
L 4331 0 
L 3500 0 
L 1259 2247 
L 1259 0 
L 628 0 
L 628 4666 
z
" transform="scale(0.015625)"/>
      <path id="DejaVuSans-75" d="M 544 1381 
L 544 3500 
L 1119 3500 
L 1119 1403 
Q 1119 906 1312 657 
Q 1506 409 1894 409 
Q 2359 409 2629 706 
Q 2900 1003 2900 1516 
L 2900 3500 
L 3475 3500 
L 3475 0 
L 2900 0 
L 2900 538 
Q 2691 219 2414 64 
Q 2138 -91 1772 -91 
Q 1169 -91 856 284 
Q 544 659 544 1381 
z
M 1991 3584 
L 1991 3584 
z
" transform="scale(0.015625)"/>
      <path id="DejaVuSans-61" d="M 2194 1759 
Q 1497 1759 1228 1600 
Q 959 1441 959 1056 
Q 959 750 1161 570 
Q 1363 391 1709 391 
Q 2188 391 2477 730 
Q 2766 1069 2766 1631 
L 2766 1759 
L 2194 1759 
z
M 3341 1997 
L 3341 0 
L 2766 0 
L 2766 531 
Q 2569 213 2275 61 
Q 1981 -91 1556 -91 
Q 1019 -91 701 211 
Q 384 513 384 1019 
Q 384 1609 779 1909 
Q 1175 2209 1959 2209 
L 2766 2209 
L 2766 2266 
Q 2766 2663 2505 2880 
Q 2244 3097 1772 3097 
Q 1472 3097 1187 3025 
Q 903 2953 641 2809 
L 641 3341 
Q 956 3463 1253 3523 
Q 1550 3584 1831 3584 
Q 2591 3584 2966 3190 
Q 3341 2797 3341 1997 
z
" transform="scale(0.015625)"/>
      <path id="DejaVuSans-f3" d="M 1959 3097 
Q 1497 3097 1228 2736 
Q 959 2375 959 1747 
Q 959 1119 1226 758 
Q 1494 397 1959 397 
Q 2419 397 2687 759 
Q 2956 1122 2956 1747 
Q 2956 2369 2687 2733 
Q 2419 3097 1959 3097 
z
M 1959 3584 
Q 2709 3584 3137 3096 
Q 3566 2609 3566 1747 
Q 3566 888 3137 398 
Q 2709 -91 1959 -91 
Q 1206 -91 779 398 
Q 353 888 353 1747 
Q 353 2609 779 3096 
Q 1206 3584 1959 3584 
z
M 2394 5119 
L 3016 5119 
L 1998 3944 
L 1519 3944 
L 2394 5119 
z
" transform="scale(0.015625)"/>
      <path id="DejaVuSans-f6" d="M 1959 3097 
Q 1497 3097 1228 2736 
Q 959 2375 959 1747 
Q 959 1119 1226 758 
Q 1494 397 1959 397 
Q 2419 397 2687 759 
Q 2956 1122 2956 1747 
Q 2956 2369 2687 2733 
Q 2419 3097 1959 3097 
z
M 1959 3584 
Q 2709 3584 3137 3096 
Q 3566 2609 3566 1747 
Q 3566 888 3137 398 
Q 2709 -91 1959 -91 
Q 1206 -91 779 398 
Q 353 888 353 1747 
Q 353 2609 779 3096 
Q 1206 3584 1959 3584 
z
M 2254 4850 
L 2888 4850 
L 2888 4219 
L 2254 4219 
L 2254 4850 
z
M 1032 4850 
L 1666 4850 
L 1666 4219 
L 1032 4219 
L 1032 4850 
z
" transform="scale(0.015625)"/>
      <path id="DejaVuSans-6f" d="M 1959 3097 
Q 1497 3097 1228 2736 
Q 959 2375 959 1747 
Q 959 1119 1226 758 
Q 1494 397 1959 397 
Q 2419 397 2687 759 
Q 2956 1122 2956 1747 
Q 2956 2369 2687 2733 
Q 2419 3097 1959 3097 
z
M 1959 3584 
Q 2709 3584 3137 3096 
Q 3566 2609 3566 1747 
Q 3566 888 3137 398 
Q 2709 -91 1959 -91 
Q 1206 -91 779 398 
Q 353 888 353 1747 
Q 353 2609 779 3096 
Q 1206 3584 1959 3584 
z
" transform="scale(0.015625)"/>
      <path id="DejaVuSans-79" d="M 2059 -325 
Q 1816 -950 1584 -1140 
Q 1353 -1331 966 -1331 
L 506 -1331 
L 506 -850 
L 844 -850 
Q 1081 -850 1212 -737 
Q 1344 -625 1503 -206 
L 1606 56 
L 191 3500 
L 800 3500 
L 1894 763 
L 2988 3500 
L 3597 3500 
L 2059 -325 
z
" transform="scale(0.015625)"/>
      <path id="DejaVuSans-171" d="M 2940 5119 
L 3496 5119 
L 2721 3944 
L 2299 3944 
L 2940 5119 
z
M 1896 5119 
L 2427 5119 
L 1730 3944 
L 1302 3944 
L 1896 5119 
z
M 544 1381 
L 544 3500 
L 1119 3500 
L 1119 1403 
Q 1119 906 1312 657 
Q 1506 409 1894 409 
Q 2359 409 2629 706 
Q 2900 1003 2900 1516 
L 2900 3500 
L 3475 3500 
L 3475 0 
L 2900 0 
L 2900 538 
Q 2691 219 2414 64 
Q 2138 -91 1772 -91 
Q 1169 -91 856 284 
Q 544 659 544 1381 
z
M 1991 3584 
L 1991 3584 
z
" transform="scale(0.015625)"/>
     </defs>
     <use xlink:href="#DejaVuSans-49"/>
     <use xlink:href="#DejaVuSans-6e" transform="translate(29.492188 0)"/>
     <use xlink:href="#DejaVuSans-74" transform="translate(92.871094 0)"/>
     <use xlink:href="#DejaVuSans-e9" transform="translate(132.080078 0)"/>
     <use xlink:href="#DejaVuSans-7a" transform="translate(193.603516 0)"/>
     <use xlink:href="#DejaVuSans-65" transform="translate(246.09375 0)"/>
     <use xlink:href="#DejaVuSans-74" transform="translate(307.617188 0)"/>
     <use xlink:href="#DejaVuSans-65" transform="translate(346.826172 0)"/>
     <use xlink:href="#DejaVuSans-6b" transform="translate(408.349609 0)"/>
     <use xlink:href="#DejaVuSans-3a" transform="translate(466.259766 0)"/>
     <use xlink:href="#DejaVuSans-20" transform="translate(499.951172 0)"/>
     <use xlink:href="#DejaVuSans-4d" transform="translate(531.738281 0)"/>
     <use xlink:href="#DejaVuSans-65" transform="translate(618.017578 0)"/>
     <use xlink:href="#DejaVuSans-64" transform="translate(679.541016 0)"/>
     <use xlink:href="#DejaVuSans-69" transform="translate(743.017578 0)"/>
     <use xlink:href="#DejaVuSans-e1" transform="translate(770.800781 0)"/>
     <use xlink:href="#DejaVuSans-6e" transform="translate(832.080078 0)"/>
     <use xlink:href="#DejaVuSans-2c" transform="translate(895.458984 0)"/>
     <use xlink:href="#DejaVuSans-20" transform="translate(927.246094 0)"/>
     <use xlink:href="#DejaVuSans-32" transform="translate(959.033203 0)"/>
     <use xlink:href="#DejaVuSans-31" transform="translate(1022.65625 0)"/>
     <use xlink:href="#DejaVuSans-20" transform="translate(1086.279297 0)"/>
     <use xlink:href="#DejaVuSans-4b" transform="translate(1118.066406 0)"/>
     <use xlink:href="#DejaVuSans-75" transform="translate(1178.642578 0)"/>
     <use xlink:href="#DejaVuSans-74" transform="translate(1242.021484 0)"/>
     <use xlink:href="#DejaVuSans-61" transform="translate(1281.230469 0)"/>
     <use xlink:href="#DejaVuSans-74" transform="translate(1342.509766 0)"/>
     <use xlink:href="#DejaVuSans-f3" transform="translate(1381.71875 0)"/>
     <use xlink:href="#DejaVuSans-6b" transform="translate(1442.900391 0)"/>
     <use xlink:href="#DejaVuSans-f6" transform="translate(1497.185547 0)"/>
     <use xlink:href="#DejaVuSans-7a" transform="translate(1558.367188 0)"/>
     <use xlink:href="#DejaVuSans-70" transform="translate(1610.857422 0)"/>
     <use xlink:href="#DejaVuSans-6f" transform="translate(1674.333984 0)"/>
     <use xlink:href="#DejaVuSans-6e" transform="translate(1735.515625 0)"/>
     <use xlink:href="#DejaVuSans-74" transform="translate(1798.894531 0)"/>
     <use xlink:href="#DejaVuSans-2c" transform="translate(1838.103516 0)"/>
     <use xlink:href="#DejaVuSans-20" transform="translate(1869.890625 0)"/>
     <use xlink:href="#DejaVuSans-49" transform="translate(1901.677734 0)"/>
     <use xlink:href="#DejaVuSans-72" transform="translate(1931.169922 0)"/>
     <use xlink:href="#DejaVuSans-e1" transform="translate(1972.283203 0)"/>
     <use xlink:href="#DejaVuSans-6e" transform="translate(2033.5625 0)"/>
     <use xlink:href="#DejaVuSans-79" transform="translate(2096.941406 0)"/>
     <use xlink:href="#DejaVuSans-74" transform="translate(2156.121094 0)"/>
     <use xlink:href="#DejaVuSans-171" transform="translate(2195.330078 0)"/>
    </g>
   </g>
   <g id="text_18">
    <!-- Pártpreferenciák a TISZA megjelenése óta (legpontosabb intézetek, Kalman-szűrő) -->
    <g transform="translate(194.067813 16.798125) scale(0.12 -0.12)">
     <defs>
      <path id="DejaVuSans-50" d="M 1259 4147 
L 1259 2394 
L 2053 2394 
Q 2494 2394 2734 2622 
Q 2975 2850 2975 3272 
Q 2975 3691 2734 3919 
Q 2494 4147 2053 4147 
L 1259 4147 
z
M 628 4666 
L 2053 4666 
Q 2838 4666 3239 4311 
Q 3641 3956 3641 3272 
Q 3641 2581 3239 2228 
Q 2838 1875 2053 1875 
L 1259 1875 
L 1259 0 
L 628 0 
L 628 4666 
z
" transform="scale(0.015625)"/>
      <path id="DejaVuSans-66" d="M 2375 4863 
L 2375 4384 
L 1825 4384 
Q 1516 4384 1395 4259 
Q 1275 4134 1275 3809 
L 1275 3500 
L 2222 3500 
L 2222 3053 
L 1275 3053 
L 1275 0 
L 697 0 
L 697 3053 
L 147 3053 
L 147 3500 
L 697 3500 
L 697 3744 
Q 697 4328 969 4595 
Q 1241 4863 1831 4863 
L 2375 4863 
z
" transform="scale(0.015625)"/>
      <path id="DejaVuSans-63" d="M 3122 3366 
L 3122 2828 
Q 2878 2963 2633 3030 
Q 2388 3097 2138 3097 
Q 1578 3097 1268 2742 
Q 959 2388 959 1747 
Q 959 1106 1268 751 
Q 1578 397 2138 397 
Q 2388 397 2633 464 
Q 2878 531 3122 666 
L 3122 134 
Q 2881 22 2623 -34 
Q 2366 -91 2075 -91 
Q 1284 -91 818 406 
Q 353 903 353 1747 
Q 353 2603 823 3093 
Q 1294 3584 2113 3584 
Q 2378 3584 2631 3529 
Q 2884 3475 3122 3366 
z
" transform="scale(0.015625)"/>
      <path id="DejaVuSans-54" d="M -19 4666 
L 3928 4666 
L 3928 4134 
L 2272 4134 
L 2272 0 
L 1638 0 
L 1638 4134 
L -19 4134 
L -19 4666 
z
" transform="scale(0.015625)"/>
      <path id="DejaVuSans-53" d="M 3425 4513 
L 3425 3897 
Q 3066 4069 2747 4153 
Q 2428 4238 2131 4238 
Q 1616 4238 1336 4038 
Q 1056 3838 1056 3469 
Q 1056 3159 1242 3001 
Q 1428 2844 1947 2747 
L 2328 2669 
Q 3034 2534 3370 2195 
Q 3706 1856 3706 1288 
Q 3706 609 3251 259 
Q 2797 -91 1919 -91 
Q 1588 -91 1214 -16 
Q 841 59 441 206 
L 441 856 
Q 825 641 1194 531 
Q 1563 422 1919 422 
Q 2459 422 2753 634 
Q 3047 847 3047 1241 
Q 3047 1584 2836 1778 
Q 2625 1972 2144 2069 
L 1759 2144 
Q 1053 2284 737 2584 
Q 422 2884 422 3419 
Q 422 4038 858 4394 
Q 1294 4750 2059 4750 
Q 2388 4750 2728 4690 
Q 3069 4631 3425 4513 
z
" transform="scale(0.015625)"/>
      <path id="DejaVuSans-5a" d="M 359 4666 
L 4025 4666 
L 4025 4184 
L 1075 531 
L 4097 531 
L 4097 0 
L 288 0 
L 288 481 
L 3238 4134 
L 359 4134 
L 359 4666 
z
" transform="scale(0.015625)"/>
      <path id="DejaVuSans-6d" d="M 3328 2828 
Q 3544 3216 3844 3400 
Q 4144 3584 4550 3584 
Q 5097 3584 5394 3201 
Q 5691 2819 5691 2113 
L 5691 0 
L 5113 0 
L 5113 2094 
Q 5113 2597 4934 2840 
Q 4756 3084 4391 3084 
Q 3944 3084 3684 2787 
Q 3425 2491 3425 1978 
L 3425 0 
L 2847 0 
L 2847 2094 
Q 2847 2600 2669 2842 
Q 2491 3084 2119 3084 
Q 1678 3084 1418 2786 
Q 1159 2488 1159 1978 
L 1159 0 
L 581 0 
L 581 3500 
L 1159 3500 
L 1159 2956 
Q 1356 3278 1631 3431 
Q 1906 3584 2284 3584 
Q 2666 3584 2933 3390 
Q 3200 3197 3328 2828 
z
" transform="scale(0.015625)"/>
      <path id="DejaVuSans-67" d="M 2906 1791 
Q 2906 2416 2648 2759 
Q 2391 3103 1925 3103 
Q 1463 3103 1205 2759 
Q 947 2416 947 1791 
Q 947 1169 1205 825 
Q 1463 481 1925 481 
Q 2391 481 2648 825 
Q 2906 1169 2906 1791 
z
M 3481 434 
Q 3481 -459 3084 -895 
Q 2688 -1331 1869 -1331 
Q 1566 -1331 1297 -1286 
Q 1028 -1241 775 -1147 
L 775 -588 
Q 1028 -725 1275 -790 
Q 1522 -856 1778 -856 
Q 2344 -856 2625 -561 
Q 2906 -266 2906 331 
L 2906 616 
Q 2728 306 2450 153 
Q 2172 0 1784 0 
Q 1141 0 747 490 
Q 353 981 353 1791 
Q 353 2603 747 3093 
Q 1141 3584 1784 3584 
Q 2172 3584 2450 3431 
Q 2728 3278 2906 2969 
L 2906 3500 
L 3481 3500 
L 3481 434 
z
" transform="scale(0.015625)"/>
      <path id="DejaVuSans-6a" d="M 603 3500 
L 1178 3500 
L 1178 -63 
Q 1178 -731 923 -1031 
Q 669 -1331 103 -1331 
L -116 -1331 
L -116 -844 
L 38 -844 
Q 366 -844 484 -692 
Q 603 -541 603 -63 
L 603 3500 
z
M 603 4863 
L 1178 4863 
L 1178 4134 
L 603 4134 
L 603 4863 
z
" transform="scale(0.015625)"/>
      <path id="DejaVuSans-73" d="M 2834 3397 
L 2834 2853 
Q 2591 2978 2328 3040 
Q 2066 3103 1784 3103 
Q 1356 3103 1142 2972 
Q 928 2841 928 2578 
Q 928 2378 1081 2264 
Q 1234 2150 1697 2047 
L 1894 2003 
Q 2506 1872 2764 1633 
Q 3022 1394 3022 966 
Q 3022 478 2636 193 
Q 2250 -91 1575 -91 
Q 1294 -91 989 -36 
Q 684 19 347 128 
L 347 722 
Q 666 556 975 473 
Q 1284 391 1588 391 
Q 1994 391 2212 530 
Q 2431 669 2431 922 
Q 2431 1156 2273 1281 
Q 2116 1406 1581 1522 
L 1381 1569 
Q 847 1681 609 1914 
Q 372 2147 372 2553 
Q 372 3047 722 3315 
Q 1072 3584 1716 3584 
Q 2034 3584 2315 3537 
Q 2597 3491 2834 3397 
z
" transform="scale(0.015625)"/>
      <path id="DejaVuSans-28" d="M 1984 4856 
Q 1566 4138 1362 3434 
Q 1159 2731 1159 2009 
Q 1159 1288 1364 580 
Q 1569 -128 1984 -844 
L 1484 -844 
Q 1016 -109 783 600 
Q 550 1309 550 2009 
Q 550 2706 781 3412 
Q 1013 4119 1484 4856 
L 1984 4856 
z
" transform="scale(0.015625)"/>
      <path id="DejaVuSans-62" d="M 3116 1747 
Q 3116 2381 2855 2742 
Q 2594 3103 2138 3103 
Q 1681 3103 1420 2742 
Q 1159 2381 1159 1747 
Q 1159 1113 1420 752 
Q 1681 391 2138 391 
Q 2594 391 2855 752 
Q 3116 1113 3116 1747 
z
M 1159 2969 
Q 1341 3281 1617 3432 
Q 1894 3584 2278 3584 
Q 2916 3584 3314 3078 
Q 3713 2572 3713 1747 
Q 3713 922 3314 415 
Q 2916 -91 2278 -91 
Q 1894 -91 1617 61 
Q 1341 213 1159 525 
L 1159 0 
L 581 0 
L 581 4863 
L 1159 4863 
L 1159 2969 
z
" transform="scale(0.015625)"/>
      <path id="DejaVuSans-2d" d="M 313 2009 
L 1997 2009 
L 1997 1497 
L 313 1497 
L 313 2009 
z
" transform="scale(0.015625)"/>
      <path id="DejaVuSans-151" d="M 2892 5119 
L 3448 5119 
L 2673 3944 
L 2251 3944 
L 2892 5119 
z
M 1848 5119 
L 2379 5119 
L 1682 3944 
L 1254 3944 
L 1848 5119 
z
M 1959 3097 
Q 1497 3097 1228 2736 
Q 959 2375 959 1747 
Q 959 1119 1226 758 
Q 1494 397 1959 397 
Q 2419 397 2687 759 
Q 2956 1122 2956 1747 
Q 2956 2369 2687 2733 
Q 2419 3097 1959 3097 
z
M 1959 3584 
Q 2709 3584 3137 3096 
Q 3566 2609 3566 1747 
Q 3566 888 3137 398 
Q 2709 -91 1959 -91 
Q 1206 -91 779 398 
Q 353 888 353 1747 
Q 353 2609 779 3096 
Q 1206 3584 1959 3584 
z
" transform="scale(0.015625)"/>
      <path id="DejaVuSans-29" d="M 513 4856 
L 1013 4856 
Q 1481 4119 1714 3412 
Q 1947 2706 1947 2009 
Q 1947 1309 1714 600 
Q 1481 -109 1013 -844 
L 513 -844 
Q 928 -128 1133 580 
Q 1338 1288 1338 2009 
Q 1338 2731 1133 3434 
Q 928 4138 513 4856 
z
" transform="scale(0.015625)"/>
     </defs>
     <use xlink:href="#DejaVuSans-50"/>
     <use xlink:href="#DejaVuSans-e1" transform="translate(55.802734 0)"/>
     <use xlink:href="#DejaVuSans-72" transform="translate(117.082031 0)"/>
     <use xlink:href="#DejaVuSans-74" transform="translate(158.195312 0)"/>
     <use xlink:href="#DejaVuSans-70" transform="translate(197.404297 0)"/>
     <use xlink:href="#DejaVuSans-72" transform="translate(260.880859 0)"/>
     <use xlink:href="#DejaVuSans-65" transform="translate(299.744141 0)"/>
     <use xlink:href="#DejaVuSans-66" transform="translate(361.267578 0)"/>
     <use xlink:href="#DejaVuSans-65" transform="translate(396.472656 0)"/>
     <use xlink:href="#DejaVuSans-72" transform="translate(457.996094 0)"/>
     <use xlink:href="#DejaVuSans-65" transform="translate(496.859375 0)"/>
     <use xlink:href="#DejaVuSans-6e" transform="translate(558.382812 0)"/>
     <use xlink:href="#DejaVuSans-63" transform="translate(621.761719 0)"/>
     <use xlink:href="#DejaVuSans-69" transform="translate(676.742188 0)"/>
     <use xlink:href="#DejaVuSans-e1" transform="translate(704.525391 0)"/>
     <use xlink:href="#DejaVuSans-6b" transform="translate(765.804688 0)"/>
     <use xlink:href="#DejaVuSans-20" transform="translate(823.714844 0)"/>
     <use xlink:href="#DejaVuSans-61" transform="translate(855.501953 0)"/>
     <use xlink:href="#DejaVuSans-20" transform="translate(916.78125 0)"/>
     <use xlink:href="#DejaVuSans-54" transform="translate(948.568359 0)"/>
     <use xlink:href="#DejaVuSans-49" transform="translate(1009.652344 0)"/>
     <use xlink:href="#DejaVuSans-53" transform="translate(1039.144531 0)"/>
     <use xlink:href="#DejaVuSans-5a" transform="translate(1102.621094 0)"/>
     <use xlink:href="#DejaVuSans-41" transform="translate(1171.126953 0)"/>
     <use xlink:href="#DejaVuSans-20" transform="translate(1239.535156 0)"/>
     <use xlink:href="#DejaVuSans-6d" transform="translate(1271.322266 0)"/>
     <use xlink:href="#DejaVuSans-65" transform="translate(1368.734375 0)"/>
     <use xlink:href="#DejaVuSans-67" transform="translate(1430.257812 0)"/>
     <use xlink:href="#DejaVuSans-6a" transform="translate(1493.734375 0)"/>
     <use xlink:href="#DejaVuSans-65" transform="translate(1521.517578 0)"/>
     <use xlink:href="#DejaVuSans-6c" transform="translate(1583.041016 0)"/>
     <use xlink:href="#DejaVuSans-65" transform="translate(1610.824219 0)"/>
     <use xlink:href="#DejaVuSans-6e" transform="translate(1672.347656 0)"/>
     <use xlink:href="#DejaVuSans-e9" transform="translate(1735.726562 0)"/>
     <use xlink:href="#DejaVuSans-73" transform="translate(1797.25 0)"/>
     <use xlink:href="#DejaVuSans-65" transform="translate(1849.349609 0)"/>
     <use xlink:href="#DejaVuSans-20" transform="translate(1910.873047 0)"/>
     <use xlink:href="#DejaVuSans-f3" transform="translate(1942.660156 0)"/>
     <use xlink:href="#DejaVuSans-74" transform="translate(2003.841797 0)"/>
     <use xlink:href="#DejaVuSans-61" transform="translate(2043.050781 0)"/>
     <use xlink:href="#DejaVuSans-20" transform="translate(2104.330078 0)"/>
     <use xlink:href="#DejaVuSans-28" transform="translate(2136.117188 0)"/>
     <use xlink:href="#DejaVuSans-6c" transform="translate(2175.130859 0)"/>
     <use xlink:href="#DejaVuSans-65" transform="translate(2202.914062 0)"/>
     <use xlink:href="#DejaVuSans-67" transform="translate(2264.4375 0)"/>
     <use xlink:href="#DejaVuSans-70" transform="translate(2327.914062 0)"/>
     <use xlink:href="#DejaVuSans-6f" transform="translate(2391.390625 0)"/>
     <use xlink:href="#DejaVuSans-6e" transform="translate(2452.572266 0)"/>
     <use xlink:href="#DejaVuSans-74" transform="translate(2515.951172 0)"/>
     <use xlink:href="#DejaVuSans-6f" transform="translate(2555.160156 0)"/>
     <use xlink:href="#DejaVuSans-73" transform="translate(2616.341797 0)"/>
     <use xlink:href="#DejaVuSans-61" transform="translate(2668.441406 0)"/>
     <use xlink:href="#DejaVuSans-62" transform="translate(2729.720703 0)"/>
     <use xlink:href="#DejaVuSans-62" transform="translate(2793.197266 0)"/>
     <use xlink:href="#DejaVuSans-20" transform="translate(2856.673828 0)"/>
     <use xlink:href="#DejaVuSans-69" transform="translate(2888.460938 0)"/>
     <use xlink:href="#DejaVuSans-6e" transform="translate(2916.244141 0)"/>
     <use xlink:href="#DejaVuSans-74" transform="translate(2979.623047 0)"/>
     <use xlink:href="#DejaVuSans-e9" transform="translate(3018.832031 0)"/>
     <use xlink:href="#DejaVuSans-7a" transform="translate(3080.355469 0)"/>
     <use xlink:href="#DejaVuSans-65" transform="translate(3132.845703 0)"/>
     <use xlink:href="#DejaVuSans-74" transform="translate(3194.369141 0)"/>
     <use xlink:href="#DejaVuSans-65" transform="translate(3233.578125 0)"/>
     <use xlink:href="#DejaVuSans-6b" transform="translate(3295.101562 0)"/>
     <use xlink:href="#DejaVuSans-2c" transform="translate(3353.011719 0)"/>
     <use xlink:href="#DejaVuSans-20" transform="translate(3384.798828 0)"/>
     <use xlink:href="#DejaVuSans-4b" transform="translate(3416.585938 0)"/>
     <use xlink:href="#DejaVuSans-61" transform="translate(3480.412109 0)"/>
     <use xlink:href="#DejaVuSans-6c" transform="translate(3541.691406 0)"/>
     <use xlink:href="#DejaVuSans-6d" transform="translate(3569.474609 0)"/>
     <use xlink:href="#DejaVuSans-61" transform="translate(3666.886719 0)"/>
     <use xlink:href="#DejaVuSans-6e" transform="translate(3728.166016 0)"/>
     <use xlink:href="#DejaVuSans-2d" transform="translate(3791.544922 0)"/>
     <use xlink:href="#DejaVuSans-73" transform="translate(3827.628906 0)"/>
     <use xlink:href="#DejaVuSans-7a" transform="translate(3879.728516 0)"/>
     <use xlink:href="#DejaVuSans-171" transform="translate(3932.21875 0)"/>
     <use xlink:href="#DejaVuSans-72" transform="translate(3995.597656 0)"/>
     <use xlink:href="#DejaVuSans-151" transform="translate(4036.710938 0)"/>
     <use xlink:href="#DejaVuSans-29" transform="translate(4097.892578 0)"/>
    </g>
   </g>
   <g id="line2d_34">
    <path d="M 52.842579 115.323889 
L 63.898352 134.507849 
L 97.065672 125.336804 
L 104.804713 121.309867 
L 108.121445 149.169488 
L 143.499919 162.026542 
L 212.045712 169.420653 
L 250.740918 186.974452 
L 272.852464 198.900316 
L 297.175165 212.770405 
L 335.870371 205.013971 
L 411.326023 212.118984 
L 442.282188 213.8465 
" clip-path="url(#p3e113bb76f)" style="fill: none; stroke: #ff6a00; stroke-width: 2; stroke-linecap: square"/>
   </g>
   <g id="line2d_35">
    <path d="M 52.842579 443.743622 
L 63.898352 449.523391 
L 97.065672 457.286572 
L 104.804713 453.245179 
L 108.121445 456.939579 
L 143.499919 461.186458 
L 212.045712 485.443144 
L 250.740918 489.84049 
L 272.852464 494.068383 
L 297.175165 491.768076 
L 335.870371 492.277589 
L 411.326023 496.384421 
L 442.282188 497.542712 
" clip-path="url(#p3e113bb76f)" style="fill: none; stroke: #0067aa; stroke-width: 2; stroke-linecap: square"/>
   </g>
   <g id="line2d_36">
    <path d="M 52.842579 521.493489 
L 63.898352 518.777502 
L 97.065672 521.691911 
L 104.804713 522.197657 
L 108.121445 521.043827 
L 143.499919 516.521428 
L 212.045712 514.28785 
L 250.740918 511.034836 
L 272.852464 514.299922 
L 297.175165 516.563452 
L 335.870371 521.178045 
L 411.326023 522.622867 
L 442.282188 523.037909 
" clip-path="url(#p3e113bb76f)" style="fill: none; stroke: #8e6fce; stroke-width: 2; stroke-linecap: square"/>
   </g>
   <g id="line2d_37">
    <path d="M 52.842579 487.802443 
L 63.898352 486.731711 
L 97.065672 491.951796 
L 104.804713 490.312629 
L 108.121445 488.842815 
L 143.499919 486.855691 
L 212.045712 487.320112 
L 250.740918 482.658657 
L 272.852464 478.487985 
L 297.175165 476.75685 
L 335.870371 476.656501 
L 411.326023 478.14006 
L 442.282188 481.900611 
" clip-path="url(#p3e113bb76f)" style="fill: none; stroke: #688d1b; stroke-width: 2; stroke-linecap: square"/>
   </g>
   <g id="line2d_38">
    <path d="M 52.842579 520.287638 
L 63.898352 514.738392 
L 97.065672 508.673878 
L 104.804713 507.030381 
L 108.121445 506.245741 
L 143.499919 504.619305 
L 212.045712 498.625893 
L 250.740918 493.3559 
L 272.852464 495.467677 
L 297.175165 491.457668 
L 335.870371 490.715149 
L 411.326023 491.630764 
L 442.282188 496.189043 
" clip-path="url(#p3e113bb76f)" style="fill: none; stroke: #808080; stroke-width: 2; stroke-linecap: square"/>
   </g>
   <g id="line2d_39">
    <path d="M 52.842579 306.126384 
L 63.898352 310.66118 
L 97.065672 285.824768 
L 104.804713 292.631615 
L 108.121445 260.444313 
L 143.499919 257.365347 
L 212.045712 201.716584 
L 250.740918 172.789466 
L 272.852464 142.684771 
L 297.175165 134.740341 
L 335.870371 151.799431 
L 411.326023 136.885924 
L 442.282188 102.661666 
" clip-path="url(#p3e113bb76f)" style="fill: none; stroke: #112866; stroke-width: 2; stroke-linecap: square"/>
   </g>
   <g id="legend_1">
    <g id="patch_7">
     <path d="M 899.556188 118.866875 
L 993.696813 118.866875 
Q 995.696813 118.866875 995.696813 116.866875 
L 995.696813 29.798125 
Q 995.696813 27.798125 993.696813 27.798125 
L 899.556188 27.798125 
Q 897.556188 27.798125 897.556188 29.798125 
L 897.556188 116.866875 
Q 897.556188 118.866875 899.556188 118.866875 
z
" style="fill: #ffffff; opacity: 0.8; stroke: #cccccc; stroke-linejoin: miter"/>
    </g>
    <g id="line2d_40">
     <path d="M 901.556188 35.896563 
L 911.556188 35.896563 
L 921.556188 35.896563 
" style="fill: none; stroke: #ff6a00; stroke-width: 2; stroke-linecap: square"/>
    </g>
    <g id="text_19">
     <!-- Fidesz-KDNP -->
     <g transform="translate(929.556188 39.396563) scale(0.1 -0.1)">
      <defs>
       <path id="DejaVuSans-46" d="M 628 4666 
L 3309 4666 
L 3309 4134 
L 1259 4134 
L 1259 2759 
L 3109 2759 
L 3109 2228 
L 1259 2228 
L 1259 0 
L 628 0 
L 628 4666 
z
" transform="scale(0.015625)"/>
       <path id="DejaVuSans-44" d="M 1259 4147 
L 1259 519 
L 2022 519 
Q 2988 519 3436 956 
Q 3884 1394 3884 2338 
Q 3884 3275 3436 3711 
Q 2988 4147 2022 4147 
L 1259 4147 
z
M 628 4666 
L 1925 4666 
Q 3281 4666 3915 4102 
Q 4550 3538 4550 2338 
Q 4550 1131 3912 565 
Q 3275 0 1925 0 
L 628 0 
L 628 4666 
z
" transform="scale(0.015625)"/>
       <path id="DejaVuSans-4e" d="M 628 4666 
L 1478 4666 
L 3547 763 
L 3547 4666 
L 4159 4666 
L 4159 0 
L 3309 0 
L 1241 3903 
L 1241 0 
L 628 0 
L 628 4666 
z
" transform="scale(0.015625)"/>
      </defs>
      <use xlink:href="#DejaVuSans-46"/>
      <use xlink:href="#DejaVuSans-69" transform="translate(50.269531 0)"/>
      <use xlink:href="#DejaVuSans-64" transform="translate(78.052734 0)"/>
      <use xlink:href="#DejaVuSans-65" transform="translate(141.529297 0)"/>
      <use xlink:href="#DejaVuSans-73" transform="translate(203.052734 0)"/>
      <use xlink:href="#DejaVuSans-7a" transform="translate(255.152344 0)"/>
      <use xlink:href="#DejaVuSans-2d" transform="translate(307.642578 0)"/>
      <use xlink:href="#DejaVuSans-4b" transform="translate(343.726562 0)"/>
      <use xlink:href="#DejaVuSans-44" transform="translate(409.302734 0)"/>
      <use xlink:href="#DejaVuSans-4e" transform="translate(486.304688 0)"/>
      <use xlink:href="#DejaVuSans-50" transform="translate(561.109375 0)"/>
     </g>
    </g>
    <g id="line2d_41">
     <path d="M 901.556188 50.574688 
L 911.556188 50.574688 
L 921.556188 50.574688 
" style="fill: none; stroke: #0067aa; stroke-width: 2; stroke-linecap: square"/>
    </g>
    <g id="text_20">
     <!-- DK -->
     <g transform="translate(929.556188 54.074688) scale(0.1 -0.1)">
      <use xlink:href="#DejaVuSans-44"/>
      <use xlink:href="#DejaVuSans-4b" transform="translate(77.001953 0)"/>
     </g>
    </g>
    <g id="line2d_42">
     <path d="M 901.556188 65.252813 
L 911.556188 65.252813 
L 921.556188 65.252813 
" style="fill: none; stroke: #8e6fce; stroke-width: 2; stroke-linecap: square"/>
    </g>
    <g id="text_21">
     <!-- MM -->
     <g transform="translate(929.556188 68.752813) scale(0.1 -0.1)">
      <use xlink:href="#DejaVuSans-4d"/>
      <use xlink:href="#DejaVuSans-4d" transform="translate(86.279297 0)"/>
     </g>
    </g>
    <g id="line2d_43">
     <path d="M 901.556188 79.930938 
L 911.556188 79.930938 
L 921.556188 79.930938 
" style="fill: none; stroke: #688d1b; stroke-width: 2; stroke-linecap: square"/>
    </g>
    <g id="text_22">
     <!-- Mi Hazánk -->
     <g transform="translate(929.556188 83.430938) scale(0.1 -0.1)">
      <defs>
       <path id="DejaVuSans-48" d="M 628 4666 
L 1259 4666 
L 1259 2753 
L 3553 2753 
L 3553 4666 
L 4184 4666 
L 4184 0 
L 3553 0 
L 3553 2222 
L 1259 2222 
L 1259 0 
L 628 0 
L 628 4666 
z
" transform="scale(0.015625)"/>
      </defs>
      <use xlink:href="#DejaVuSans-4d"/>
      <use xlink:href="#DejaVuSans-69" transform="translate(86.279297 0)"/>
      <use xlink:href="#DejaVuSans-20" transform="translate(114.0625 0)"/>
      <use xlink:href="#DejaVuSans-48" transform="translate(145.849609 0)"/>
      <use xlink:href="#DejaVuSans-61" transform="translate(221.044922 0)"/>
      <use xlink:href="#DejaVuSans-7a" transform="translate(282.324219 0)"/>
      <use xlink:href="#DejaVuSans-e1" transform="translate(334.814453 0)"/>
      <use xlink:href="#DejaVuSans-6e" transform="translate(396.09375 0)"/>
      <use xlink:href="#DejaVuSans-6b" transform="translate(459.472656 0)"/>
     </g>
    </g>
    <g id="line2d_44">
     <path d="M 901.556188 94.609063 
L 911.556188 94.609063 
L 921.556188 94.609063 
" style="fill: none; stroke: #808080; stroke-width: 2; stroke-linecap: square"/>
    </g>
    <g id="text_23">
     <!-- MKKP -->
     <g transform="translate(929.556188 98.109063) scale(0.1 -0.1)">
      <use xlink:href="#DejaVuSans-4d"/>
      <use xlink:href="#DejaVuSans-4b" transform="translate(86.279297 0)"/>
      <use xlink:href="#DejaVuSans-4b" transform="translate(151.855469 0)"/>
      <use xlink:href="#DejaVuSans-50" transform="translate(217.431641 0)"/>
     </g>
    </g>
    <g id="line2d_45">
     <path d="M 901.556188 109.287188 
L 911.556188 109.287188 
L 921.556188 109.287188 
" style="fill: none; stroke: #112866; stroke-width: 2; stroke-linecap: square"/>
    </g>
    <g id="text_24">
     <!-- TISZA -->
     <g transform="translate(929.556188 112.787188) scale(0.1 -0.1)">
      <use xlink:href="#DejaVuSans-54"/>
      <use xlink:href="#DejaVuSans-49" transform="translate(61.083984 0)"/>
      <use xlink:href="#DejaVuSans-53" transform="translate(90.576172 0)"/>
      <use xlink:href="#DejaVuSans-5a" transform="translate(154.052734 0)"/>
      <use xlink:href="#DejaVuSans-41" transform="translate(222.558594 0)"/>
     </g>
    </g>
   </g>
  </g>
 </g>
 <defs>
  <clipPath id="p3e113bb76f">
   <rect x="32.942187" y="22.798125" width="818.68" height="500.52"/>
  </clipPath>
 </defs>
</svg>
